<svg class="lds-gear" width="200px"  height="200px"  xmlns="http://www.w3.org/2000/svg" xmlns:xlink="http://www.w3.org/1999/xlink" viewBox="0 0 100 100" preserveAspectRatio="xMidYMid" style="background: none;"><g transform="translate(50 50)">
<g transform="rotate(179.647)">
<animateTransform attributeName="transform" type="rotate" values="0;360" keyTimes="0;1" dur="1s" repeatCount="indefinite"></animateTransform><path d="M37.66961640367473 -5 L47.66961640367473 -5 L47.66961640367473 5 L37.66961640367473 5 A38 38 0 0 1 35.12284475639731 14.504681182915169 L35.12284475639731 14.504681182915169 L43.783098794241695 19.50468118291517 L38.7830987942417 28.164935220759553 L30.122844756397317 23.164935220759553 A38 38 0 0 1 23.16493522075956 30.122844756397313 L23.16493522075956 30.122844756397313 L28.16493522075956 38.783098794241695 L19.50468118291517 43.783098794241695 L14.50468118291517 35.12284475639731 A38 38 0 0 1 4.999999999999997 37.66961640367473 L4.999999999999997 37.66961640367473 L4.999999999999998 47.66961640367473 L-4.999999999999993 47.66961640367473 L-4.999999999999994 37.66961640367473 A38 38 0 0 1 -14.504681182915167 35.12284475639732 L-14.504681182915167 35.12284475639732 L-19.504681182915164 43.78309879424171 L-28.164935220759542 38.78309879424172 L-23.164935220759546 30.122844756397328 A38 38 0 0 1 -30.12284475639731 23.164935220759567 L-30.12284475639731 23.164935220759567 L-38.783098794241695 28.16493522075957 L-43.78309879424169 19.504681182915192 L-35.122844756397306 14.504681182915188 A38 38 0 0 1 -37.66961640367473 5 L-37.66961640367473 5 L-47.66961640367473 5.000000000000001 L-47.66961640367473 -4.99999999999999 L-37.66961640367473 -4.999999999999991 A38 38 0 0 1 -35.12284475639732 -14.504681182915165 L-35.12284475639732 -14.504681182915165 L-43.78309879424171 -19.504681182915164 L-38.78309879424172 -28.164935220759542 L-30.122844756397328 -23.164935220759546 A38 38 0 0 1 -23.164935220759578 -30.122844756397303 L-23.164935220759578 -30.122844756397303 L-28.16493522075958 -38.78309879424169 L-19.504681182915178 -43.783098794241695 L-14.504681182915174 -35.12284475639731 A38 38 0 0 1 -5.000000000000019 -37.66961640367472 L-5.000000000000019 -37.66961640367472 L-5.00000000000002 -47.66961640367472 L5.0000000000000036 -47.66961640367472 L5.000000000000005 -37.66961640367472 A38 38 0 0 1 14.504681182915132 -35.122844756397335 L14.504681182915132 -35.122844756397335 L19.504681182915125 -43.783098794241724 L28.16493522075953 -38.78309879424172 L23.16493522075954 -30.122844756397328 A38 38 0 0 1 30.122844756397296 -23.16493522075958 L30.122844756397296 -23.16493522075958 L38.78309879424168 -28.164935220759585 L43.783098794241695 -19.50468118291518 L35.12284475639731 -14.504681182915178 A38 38 0 0 1 37.66961640367472 -5.000000000000022 M0 -20A20 20 0 1 0 0 20 A20 20 0 1 0 0 -20" fill="#1d3f72"></path></g></g></svg>